<?xml version="1.0" encoding="UTF-8" standalone="no"?>
<!-- Created with Inkscape (http://www.inkscape.org/) -->

<svg
   width="43.1749mm"
   height="11.511233mm"
   viewBox="0 0 43.1749 11.511234"
   version="1.1"
   id="svg1"
   inkscape:version="1.4 (86a8ad7, 2024-10-11)"
   sodipodi:docname="General_eBL_photo_ruler.svg"
   inkscape:export-filename="eBL Neu.png"
   inkscape:export-xdpi="500"
   inkscape:export-ydpi="500"
   xml:space="preserve"
   xmlns:inkscape="http://www.inkscape.org/namespaces/inkscape"
   xmlns:sodipodi="http://sodipodi.sourceforge.net/DTD/sodipodi-0.dtd"
   xmlns="http://www.w3.org/2000/svg"
   xmlns:svg="http://www.w3.org/2000/svg"><sodipodi:namedview
     id="namedview1"
     pagecolor="#ffffff"
     bordercolor="#000000"
     borderopacity="0.25"
     inkscape:showpageshadow="2"
     inkscape:pageopacity="0.0"
     inkscape:pagecheckerboard="0"
     inkscape:deskcolor="#d1d1d1"
     inkscape:document-units="mm"
     inkscape:zoom="4.1373683"
     inkscape:cx="63.929527"
     inkscape:cy="47.493959"
     inkscape:window-width="1920"
     inkscape:window-height="1009"
     inkscape:window-x="-8"
     inkscape:window-y="-8"
     inkscape:window-maximized="1"
     inkscape:current-layer="layer1" /><defs
     id="defs1"><clipPath
       clipPathUnits="userSpaceOnUse"
       id="clipPath18"><path
         d="M 0,36.214 H 109 V 0 H 0 Z"
         id="path16" /></clipPath><clipPath
       clipPathUnits="userSpaceOnUse"
       id="clipPath32"><path
         d="M 0,36.214 H 109 V 0 H 0 Z"
         id="path30" /></clipPath><clipPath
       clipPathUnits="userSpaceOnUse"
       id="clipPath44"><path
         d="M 0,36.214 H 109 V 0 H 0 Z"
         id="path42" /></clipPath><clipPath
       clipPathUnits="userSpaceOnUse"
       id="clipPath79"><path
         d="M 0,500 H 1000 V 0 H 0 Z"
         transform="translate(-892.76762,-277.71681)"
         id="path79" /></clipPath><clipPath
       clipPathUnits="userSpaceOnUse"
       id="clipPath81"><path
         d="M 0,500 H 1000 V 0 H 0 Z"
         id="path81" /></clipPath><clipPath
       clipPathUnits="userSpaceOnUse"
       id="clipPath83"><path
         d="M 0,500 H 1000 V 0 H 0 Z"
         transform="translate(-104.5366,-316.49321)"
         id="path83" /></clipPath><clipPath
       clipPathUnits="userSpaceOnUse"
       id="clipPath85"><path
         d="M 0,500 H 1000 V 0 H 0 Z"
         transform="translate(-153.4687,-303.87161)"
         id="path85" /></clipPath><clipPath
       clipPathUnits="userSpaceOnUse"
       id="clipPath87"><path
         d="M 0,500 H 1000 V 0 H 0 Z"
         transform="translate(-173.041,-300.96341)"
         id="path87" /></clipPath><clipPath
       clipPathUnits="userSpaceOnUse"
       id="clipPath89"><path
         d="M 0,500 H 1000 V 0 H 0 Z"
         transform="translate(-370.89651,-332.02341)"
         id="path89" /></clipPath><clipPath
       clipPathUnits="userSpaceOnUse"
       id="clipPath91"><path
         d="M 0,500 H 1000 V 0 H 0 Z"
         transform="translate(-627.29302,-328.91751)"
         id="path91" /></clipPath><clipPath
       clipPathUnits="userSpaceOnUse"
       id="clipPath93"><path
         d="M 0,500 H 1000 V 0 H 0 Z"
         transform="translate(-881.56052,-330.15041)"
         id="path93" /></clipPath></defs><g
     inkscape:groupmode="layer"
     id="layer4"
     inkscape:label="Layer 2"
     style="display:inline"
     transform="translate(0.03956538,-0.07638977)" /><g
     inkscape:label="Layer 1"
     inkscape:groupmode="layer"
     id="layer1"
     transform="translate(-82.541292,-112.25972)"
     style="display:inline"><path
       d="m 83.320366,122.16941 q -0.02196,0 -0.02196,0.0943 0,0.20024 0.118856,0.33589 0.118855,0.13565 0.294555,0.13565 0.176992,0 0.339772,-0.15244 0.0026,-0.003 0.0065,-0.003 h 0.0065 q 0.0078,0 0.01421,0.0129 0.0078,0.0116 0.01421,0.0155 -0.149861,0.18216 -0.352691,0.25192 -0.06976,0.0245 -0.157613,0.0245 -0.08785,0 -0.178283,-0.0478 -0.09043,-0.0491 -0.155029,-0.12789 -0.136943,-0.16408 -0.136943,-0.40825 0,-0.24546 0.14857,-0.447 0.149861,-0.20154 0.410827,-0.20154 0.187327,0 0.306182,0.16795 0.118856,0.16666 0.118856,0.29327 0,0.0555 -0.02713,0.0555 z m 0.01421,-0.12403 q 0,0.0246 0.02325,0.0246 h 0.48705 q 0.03359,0 0.03359,-0.04 0,-0.093 -0.08397,-0.18991 -0.08268,-0.0982 -0.182159,-0.0982 -0.09689,0 -0.176992,0.0879 -0.07881,0.0878 -0.100768,0.20024 z m 1.389835,0.75577 q 0.06072,0.008 0.06072,0.031 0,0.0155 -0.01292,0.0181 H 84.19602 q -0.01292,-0.003 -0.01292,-0.0181 0,-0.0233 0.06072,-0.031 0.139526,-0.0207 0.139526,-0.14728 v -1.61101 q 0,-0.0543 -0.05943,-0.0749 -0.02584,-0.009 -0.05555,-0.0142 -0.02971,-0.006 -0.0478,-0.0116 -0.0168,-0.005 -0.02196,-0.009 -0.0039,-0.005 -0.0039,-0.0194 0,-0.0155 0.01938,-0.0258 l 0.329437,-0.15503 q 0.0155,-0.008 0.01938,-0.008 0.02196,0 0.02196,0.031 v 1.89781 q 0,0.12661 0.139526,0.14728 z m 0.338222,-0.63174 q -0.02196,0 -0.02196,0.0943 0,0.20024 0.118855,0.33589 0.118856,0.13565 0.294556,0.13565 0.176991,0 0.339772,-0.15244 0.0026,-0.003 0.0065,-0.003 h 0.0065 q 0.0078,0 0.01421,0.0129 0.0078,0.0116 0.01421,0.0155 -0.149862,0.18216 -0.352691,0.25192 -0.06976,0.0245 -0.157613,0.0245 -0.08785,0 -0.178284,-0.0478 -0.09043,-0.0491 -0.155029,-0.12789 -0.136942,-0.16408 -0.136942,-0.40825 0,-0.24546 0.148569,-0.447 0.149862,-0.20154 0.410827,-0.20154 0.187327,0 0.306183,0.16795 0.118855,0.16666 0.118855,0.29327 0,0.0555 -0.02713,0.0555 z m 0.01421,-0.12403 q 0,0.0246 0.02325,0.0246 h 0.48705 q 0.03359,0 0.03359,-0.04 0,-0.093 -0.08397,-0.18991 -0.08268,-0.0982 -0.182159,-0.0982 -0.09689,0 -0.176992,0.0879 -0.07881,0.0878 -0.100769,0.20024 z m 1.92727,-0.23771 q 0,0.0904 -0.104645,0.0904 -0.05297,0 -0.09043,-0.0297 -0.03617,-0.031 -0.05684,-0.0517 -0.01938,-0.022 -0.04134,-0.0401 -0.09302,-0.0762 -0.227376,-0.0168 -0.133067,0.0594 -0.205414,0.25322 -0.04005,0.10722 -0.04005,0.21316 0,0.22738 0.103353,0.37207 0.103352,0.1434 0.316517,0.1434 0.158905,0 0.285512,-0.14211 0.03876,-0.0426 0.04651,-0.0426 0.0078,0 0.0168,0.008 0.009,0.008 0.009,0.0233 0,0.0142 -0.0078,0.022 -0.197662,0.27517 -0.497385,0.27517 -0.217041,0 -0.356567,-0.16148 -0.138234,-0.16149 -0.138234,-0.36949 0.0013,-0.38499 0.186035,-0.55423 0.16278,-0.14857 0.463795,-0.14857 0.186035,0 0.246755,0.0375 0.06072,0.0375 0.08527,0.0943 0.0065,0.0129 0.0065,0.0245 z m 0.440283,0.0491 q -0.0078,0 -0.0078,0.0116 v 0.71314 q 0,0.0775 0.03359,0.12144 0.03488,0.0439 0.08785,0.0439 0.05297,0 0.09172,-0.0168 0.04005,-0.0181 0.06847,-0.0388 0.02971,-0.0207 0.05297,-0.0375 0.02325,-0.0181 0.04134,-0.0181 0.01809,0 0.01809,0.009 0,0.031 -0.0065,0.0401 -0.155029,0.20024 -0.299723,0.20024 -0.143402,0 -0.217041,-0.0904 -0.07235,-0.0917 -0.07235,-0.21833 v -0.71959 h -0.09689 q -0.03617,0 -0.03876,-0.0233 -0.0013,-0.0233 0.0078,-0.0297 0.06847,-0.0439 0.188619,-0.15762 0.01292,-0.0142 0.03488,-0.0426 0.02196,-0.0284 0.0633,-0.0775 0.04263,-0.0491 0.0646,-0.0491 0.02196,0 0.02196,0.0181 0,0.003 -0.04393,0.16924 0,0.0233 0.02067,0.0246 h 0.329436 q 0.05684,0 0.05684,0.16019 0,0.008 -0.01033,0.008 z m 1.241266,0.0672 q -0.0155,-0.003 -0.04522,-0.0168 -0.107228,-0.0491 -0.167948,-0.0491 -0.06072,0 -0.127899,0.0762 -0.06589,0.0749 -0.06589,0.13565 v 0.58394 q 0,0.0969 0.112396,0.12919 0.04909,0.0129 0.09172,0.0194 0.04263,0.005 0.05426,0.0103 0.01292,0.005 0.01292,0.0207 0,0.0142 -0.01292,0.0168 h -0.647246 q -0.01292,-0.003 -0.01292,-0.0181 0,-0.0233 0.06072,-0.031 0.139526,-0.0207 0.139526,-0.14728 v -0.68342 q 0,-0.0543 -0.05943,-0.0749 -0.02584,-0.009 -0.05555,-0.0142 -0.02971,-0.006 -0.0478,-0.0116 -0.0168,-0.005 -0.02196,-0.009 -0.0039,-0.005 -0.0039,-0.0194 0,-0.0155 0.01938,-0.0258 l 0.329437,-0.15502 q 0.0155,-0.008 0.01938,-0.008 0.02196,0 0.02196,0.031 v 0.20929 q 0,0.0155 0.0078,0.0155 0.01033,0 0.05297,-0.0607 0.122732,-0.17182 0.20283,-0.17182 0.04522,0 0.138234,0.0362 0.09431,0.0362 0.09431,0.0607 0,0.0297 -0.02971,0.0904 -0.02971,0.0607 -0.05943,0.0607 z m 0.119889,0.34624 q 0,-0.25451 0.179575,-0.43667 0.180867,-0.18345 0.43279,-0.18345 0.251922,0 0.437957,0.17828 0.186035,0.17699 0.186035,0.43796 0,0.26097 -0.176992,0.44054 -0.175699,0.17828 -0.441833,0.17828 -0.266133,0 -0.441833,-0.18086 -0.175699,-0.18087 -0.175699,-0.43408 z m 0.321685,0.33202 q 0.126607,0.21316 0.34494,0.21316 0.16924,0 0.258382,-0.13565 0.09043,-0.13565 0.09043,-0.33331 0,-0.19766 -0.126607,-0.40566 -0.125315,-0.208 -0.33848,-0.208 -0.156321,0 -0.246755,0.13565 -0.08914,0.13436 -0.08914,0.34236 0,0.2067 0.107228,0.39145 z m 1.984115,-0.15891 -0.0026,-0.27259 q 0,-0.16666 -0.02842,-0.23384 -0.02842,-0.0672 -0.07235,-0.10077 -0.04393,-0.0349 -0.118856,-0.0349 -0.07364,0 -0.313934,0.11627 -0.0323,0.0194 -0.03359,0.0362 v 0.69505 q 0,0.13048 0.139526,0.14986 0.06072,0.009 0.06072,0.0297 0,0.0194 -0.01292,0.022 h -0.576191 q -0.01292,-0.003 -0.01292,-0.0181 0,-0.0246 0.06072,-0.0336 0.139526,-0.0194 0.139526,-0.14986 v -0.74156 q 0,-0.0543 -0.05943,-0.0749 -0.02584,-0.009 -0.05555,-0.0142 -0.02971,-0.006 -0.0478,-0.0116 -0.0168,-0.005 -0.02196,-0.009 -0.0039,-0.005 -0.0039,-0.0194 0,-0.0155 0.01938,-0.0258 l 0.329437,-0.15503 q 0.0155,-0.008 0.01938,-0.008 0.02196,0 0.02196,0.031 v 0.20153 q 0.0039,0.0129 0.01033,0.0129 0.0078,0 0.05555,-0.0233 0.111104,-0.0555 0.2235,-0.10723 0.112396,-0.0517 0.186035,-0.0517 0.298431,0 0.298431,0.5439 l -0.01163,0.37723 v 0.0749 q 0,0.10076 0.100769,0.13177 0.04263,0.0142 0.08139,0.0207 0.04005,0.005 0.05168,0.0103 0.01292,0.005 0.01292,0.0207 0,0.0155 -0.01292,0.0181 h -0.622701 q -0.01292,-0.003 -0.01292,-0.0181 0,-0.0246 0.06072,-0.0336 0.138234,-0.0194 0.138234,-0.1602 0.01034,-0.0646 0.01034,-0.19508 z m 0.489375,0.40695 q -0.01292,-0.003 -0.01292,-0.0181 0,-0.0233 0.06072,-0.031 0.139526,-0.0207 0.139526,-0.14728 v -0.68342 q 0,-0.0543 -0.05943,-0.0749 -0.02584,-0.009 -0.05555,-0.0142 -0.02971,-0.006 -0.0478,-0.0116 -0.0168,-0.005 -0.02196,-0.009 -0.0039,-0.005 -0.0039,-0.0194 0,-0.0155 0.01938,-0.0258 l 0.329437,-0.15502 q 0.0155,-0.008 0.01938,-0.008 0.02196,0 0.02196,0.031 v 0.97022 q 0,0.12661 0.139526,0.14728 0.06072,0.008 0.06072,0.0271 0,0.0194 -0.01292,0.022 z m 0.268717,-1.56062 q -0.05297,0 -0.09431,-0.0336 -0.04005,-0.0336 -0.04005,-0.093 0,-0.0607 0.03876,-0.0956 0.03876,-0.0349 0.09173,-0.0349 0.05426,0 0.09043,0.0413 0.03746,0.0413 0.03746,0.0891 0,0.0478 -0.03488,0.0879 -0.03488,0.0388 -0.08914,0.0388 z m 1.423425,0.51805 q 0,0.0904 -0.104645,0.0904 -0.05297,0 -0.09043,-0.0297 -0.03617,-0.031 -0.05684,-0.0517 -0.01938,-0.022 -0.04134,-0.0401 -0.09302,-0.0762 -0.227376,-0.0168 -0.133067,0.0594 -0.205414,0.25322 -0.04005,0.10722 -0.04005,0.21316 0,0.22738 0.103353,0.37207 0.103352,0.1434 0.316517,0.1434 0.158905,0 0.285512,-0.14211 0.03876,-0.0426 0.04651,-0.0426 0.0078,0 0.0168,0.008 0.009,0.008 0.009,0.0233 0,0.0142 -0.0078,0.022 -0.197662,0.27517 -0.497385,0.27517 -0.217041,0 -0.356567,-0.16148 -0.138234,-0.16149 -0.138234,-0.36949 0.0013,-0.38499 0.186034,-0.55423 0.162781,-0.14857 0.463796,-0.14857 0.186035,0 0.246754,0.0375 0.06072,0.0375 0.08527,0.0943 0.0065,0.0129 0.0065,0.0245 z m 0.703574,1.04257 q -0.01034,0 -0.01034,-0.0103 v -0.031 q 0,-0.0103 0.01809,-0.0103 0.06072,0 0.134359,-0.0129 0.236419,-0.0401 0.236419,-0.16278 v -1.36297 q -0.01292,-0.16536 -0.151153,-0.17957 -0.04134,-0.005 -0.09173,-0.005 h -0.07364 q -0.01033,0 -0.01033,-0.0103 v -0.0323 q 0,-0.0103 0.01033,-0.0103 l 0.05684,-10e-4 0.222209,-0.001 0.459919,-0.0142 q 0.738972,0 0.738972,0.43666 0,0.18475 -0.191202,0.30748 -0.02971,0.0194 -0.05168,0.0284 -0.02067,0.009 -0.02325,0.0103 0.170532,0.0956 0.267425,0.21446 0.09819,0.11886 0.09819,0.28422 0,0.35269 -0.333312,0.49093 -0.171824,0.0723 -0.373362,0.0723 z m 0.653706,-1.00769 q -0.0168,0 -0.0168,0.0142 v 0.70796 q 0,0.0917 0.08527,0.14728 0.08656,0.0555 0.186035,0.0555 0.191202,0 0.325561,-0.13565 0.134358,-0.13694 0.134358,-0.3359 0,-0.20024 -0.144693,-0.32685 -0.143402,-0.12661 -0.364319,-0.12661 z m -0.01938,-0.10464 q 0,0.0246 0.02971,0.0246 h 0.31781 q 0.124023,0 0.207997,-0.0917 0.08527,-0.0917 0.08527,-0.20541 0,-0.20283 -0.11498,-0.29327 -0.11498,-0.0917 -0.306182,-0.0917 -0.05814,0.004 -0.08139,0.004 -0.02196,0 -0.04651,0 -0.02455,-0.001 -0.04909,0.003 -0.02455,0.004 -0.03359,0.0168 -0.009,0.0129 -0.009,0.0426 z m 1.963444,0.89917 q 0,0.0336 0.03101,0.0543 0.0323,0.0194 0.07364,0.0194 0.04134,0 0.06847,-0.0207 0.02842,-0.022 0.03876,-0.022 0.01033,0 0.01033,0.0284 0,0.0271 -0.02584,0.0465 -0.193786,0.14211 -0.262257,0.14211 -0.08268,0 -0.134359,-0.17182 -0.0039,-0.0129 -0.0065,-0.0116 -0.160196,0.12015 -0.201537,0.1447 -0.105937,0.0607 -0.213165,0.0194 -0.105937,-0.0413 -0.153738,-0.13695 -0.02325,-0.0491 -0.02325,-0.10464 0,-0.10981 0.08139,-0.17441 0.08139,-0.0646 0.310059,-0.12402 0.07751,-0.0207 0.138234,-0.053 0.06072,-0.0323 0.0633,-0.0413 0.0039,-0.009 0.0039,-0.0168 v -0.24804 q 0,-0.14599 -0.113688,-0.20542 -0.03746,-0.0194 -0.09043,-0.0194 -0.05168,0 -0.105936,0.0413 -0.05297,0.0413 -0.05297,0.11756 l 0.0065,0.0504 q -0.0078,0.0155 -0.09302,0.0517 -0.08527,0.0362 -0.09819,0.0388 -0.02067,0 -0.02067,-0.0491 0,-0.0504 0.02971,-0.11111 0.02971,-0.0607 0.08397,-0.1111 0.126607,-0.11757 0.289388,-0.11757 0.16278,0 0.264841,0.0904 0.102061,0.0891 0.102061,0.21316 z m -0.59557,-0.0375 q 0,0.062 0.0478,0.10852 0.0478,0.0452 0.108521,0.0452 0.06201,0 0.149861,-0.0517 0.08785,-0.053 0.08785,-0.10852 v -0.26225 q 0,-0.0142 -0.0065,-0.0142 -0.0065,0 -0.009,0.001 l -0.299723,0.13952 q -0.04651,0.0336 -0.0633,0.0569 -0.0155,0.0232 -0.0155,0.0853 z m 1.189589,-0.83069 q 0,0.04 0.01809,0.04 0.01938,0 0.165364,-0.084 0.170532,-0.0724 0.259674,-0.0724 0.08914,0 0.170532,0.0517 0.08139,0.0517 0.138234,0.13565 0.120148,0.17312 0.120148,0.41987 0,0.24676 -0.171824,0.43667 -0.170532,0.18861 -0.450876,0.18861 -0.18216,0 -0.335897,-0.0439 -0.04522,-0.0129 -0.07751,-0.0207 -0.03101,-0.008 -0.03488,-0.0155 -0.0026,-0.009 -0.0026,-0.0207 v -1.7415 q 0,-0.0543 -0.05943,-0.0749 -0.02584,-0.009 -0.05555,-0.0142 -0.02971,-0.006 -0.0478,-0.0116 -0.0168,-0.005 -0.02196,-0.009 -0.0039,-0.005 -0.0039,-0.0194 0,-0.0155 0.01938,-0.0258 l 0.329437,-0.15503 q 0.0155,-0.008 0.01938,-0.008 0.02196,0 0.02196,0.031 z m 0.273885,0.0413 q -0.11498,0 -0.258382,0.0827 -0.0155,0.009 -0.0155,0.031 v 0.61108 q 0.01292,0.11756 0.102061,0.18345 0.08914,0.0659 0.195078,0.0659 0.186035,0 0.286804,-0.14728 0.102061,-0.14728 0.102061,-0.3359 0,-0.18862 -0.103353,-0.33977 -0.103353,-0.15115 -0.308766,-0.15115 z m 2.025455,-0.12273 q 0.01421,0.004 0.01421,0.0181 0,0.0142 -0.0026,0.0194 -0.0026,0.004 -0.01292,0.008 -0.009,0.003 -0.02713,0.005 -0.0168,0.003 -0.05426,0.0103 -0.03746,0.006 -0.06718,0.0517 -0.02971,0.0452 -0.0633,0.12532 l -0.607197,1.50507 -0.08397,0.17828 q -0.0323,0.0685 -0.135651,0.0685 -0.04522,0 -0.07235,-0.0297 -0.02713,-0.0297 -0.02713,-0.071 0,-0.0401 0.01938,-0.0594 0.02067,-0.0181 0.0478,-0.0297 0.02713,-0.0116 0.05555,-0.022 0.02971,-0.009 0.06589,-0.0439 0.03617,-0.0336 0.04263,-0.0504 0.217041,-0.48576 0.217041,-0.50772 0,-0.022 -0.02584,-0.0543 l -0.42633,-0.89012 q -0.0478,-0.13049 -0.164073,-0.16795 -0.009,-0.003 -0.02196,-0.004 -0.05426,-0.005 -0.05426,-0.0323 0,-0.0271 0.03101,-0.0271 h 0.5749 q 0.01033,0 0.01033,0.0207 0,0.0194 -0.01809,0.0271 -0.01809,0.006 -0.0801,0.006 -0.09948,0 -0.09948,0.0775 l 0.01163,0.031 0.334605,0.71701 q 0.02584,0.0659 0.05168,-0.004 0.0026,-0.006 0.0323,-0.084 0.175699,-0.44571 0.19637,-0.51548 0.02196,-0.0698 0.02196,-0.10464 0,-0.0349 -0.03746,-0.0736 -0.03617,-0.0388 -0.100769,-0.0388 -0.0633,0 -0.0633,-0.0375 0,-0.022 0.02842,-0.022 z m 0.547519,1.11362 q 0.0607,0.008 0.0607,0.031 0,0.0155 -0.0129,0.0181 h -0.576198 q -0.01292,-0.003 -0.01292,-0.0181 0,-0.0233 0.06072,-0.031 0.139527,-0.0207 0.139527,-0.14728 v -1.61101 q 0,-0.0543 -0.05943,-0.0749 -0.02584,-0.009 -0.05555,-0.0142 -0.02971,-0.006 -0.0478,-0.0116 -0.01679,-0.005 -0.02196,-0.009 -0.0039,-0.005 -0.0039,-0.0194 0,-0.0155 0.01938,-0.0258 l 0.329437,-0.15503 q 0.0155,-0.008 0.01938,-0.008 0.02196,0 0.02196,0.031 v 1.89781 q 0,0.12661 0.139534,0.14728 z m 0.13668,-0.53097 q 0,-0.25451 0.17958,-0.43667 0.18086,-0.18345 0.43278,-0.18345 0.25193,0 0.43796,0.17828 0.18604,0.17699 0.18604,0.43796 0,0.26097 -0.17699,0.44054 -0.1757,0.17828 -0.44184,0.17828 -0.26613,0 -0.44183,-0.18086 -0.1757,-0.18087 -0.1757,-0.43408 z m 0.32169,0.33202 q 0.1266,0.21316 0.34494,0.21316 0.16924,0 0.25838,-0.13565 0.0904,-0.13565 0.0904,-0.33331 0,-0.19766 -0.12661,-0.40566 -0.12531,-0.208 -0.33848,-0.208 -0.15632,0 -0.24675,0.13565 -0.0891,0.13436 -0.0891,0.34236 0,0.2067 0.10723,0.39145 z m 1.98411,-0.15891 -0.003,-0.27259 q 0,-0.16666 -0.0284,-0.23384 -0.0284,-0.0672 -0.0723,-0.10077 -0.0439,-0.0349 -0.11886,-0.0349 -0.0736,0 -0.31393,0.11627 -0.0323,0.0194 -0.0336,0.0362 v 0.69505 q 0,0.13048 0.13952,0.14986 0.0607,0.009 0.0607,0.0297 0,0.0194 -0.0129,0.022 h -0.57619 q -0.0129,-0.003 -0.0129,-0.0181 0,-0.0246 0.0607,-0.0336 0.13953,-0.0194 0.13953,-0.14986 v -0.74156 q 0,-0.0543 -0.0594,-0.0749 -0.0258,-0.009 -0.0556,-0.0142 -0.0297,-0.006 -0.0478,-0.0116 -0.0168,-0.005 -0.022,-0.009 -0.004,-0.005 -0.004,-0.0194 0,-0.0155 0.0194,-0.0258 l 0.32944,-0.15503 q 0.0155,-0.008 0.0194,-0.008 0.022,0 0.022,0.031 v 0.20153 q 0.004,0.0129 0.0103,0.0129 0.008,0 0.0555,-0.0233 0.11111,-0.0555 0.2235,-0.10723 0.1124,-0.0517 0.18604,-0.0517 0.29843,0 0.29843,0.5439 l -0.0116,0.37723 v 0.0749 q 0,0.10076 0.10077,0.13177 0.0426,0.0142 0.0814,0.0207 0.04,0.005 0.0517,0.0103 0.0129,0.005 0.0129,0.0207 0,0.0155 -0.0129,0.0181 h -0.6227 q -0.0129,-0.003 -0.0129,-0.0181 0,-0.0246 0.0607,-0.0336 0.13823,-0.0194 0.13823,-0.1602 0.0103,-0.0646 0.0103,-0.19508 z m 0.48937,0.40695 q -0.0129,-0.003 -0.0129,-0.0181 0,-0.0233 0.0607,-0.031 0.13953,-0.0207 0.13953,-0.14728 v -0.68342 q 0,-0.0543 -0.0594,-0.0749 -0.0258,-0.009 -0.0556,-0.0142 -0.0297,-0.006 -0.0478,-0.0116 -0.0168,-0.005 -0.022,-0.009 -0.004,-0.005 -0.004,-0.0194 0,-0.0155 0.0194,-0.0258 l 0.32944,-0.15502 q 0.0155,-0.008 0.0194,-0.008 0.022,0 0.022,0.031 v 0.97022 q 0,0.12661 0.13953,0.14728 0.0607,0.008 0.0607,0.0271 0,0.0194 -0.0129,0.022 z m 0.26872,-1.56062 q -0.053,0 -0.0943,-0.0336 -0.0401,-0.0336 -0.0401,-0.093 0,-0.0607 0.0388,-0.0956 0.0388,-0.0349 0.0917,-0.0349 0.0543,0 0.0904,0.0413 0.0375,0.0413 0.0375,0.0891 0,0.0478 -0.0349,0.0879 -0.0349,0.0388 -0.0891,0.0388 z m 1.20768,1.34746 q 0,0.0336 0.031,0.0543 0.0323,0.0194 0.0736,0.0194 0.0413,0 0.0685,-0.0207 0.0284,-0.022 0.0388,-0.022 0.0103,0 0.0103,0.0284 0,0.0271 -0.0258,0.0465 -0.19379,0.14211 -0.26226,0.14211 -0.0827,0 -0.13436,-0.17182 -0.004,-0.0129 -0.006,-0.0116 -0.16019,0.12015 -0.20154,0.1447 -0.10593,0.0607 -0.21316,0.0194 -0.10594,-0.0413 -0.15374,-0.13695 -0.0232,-0.0491 -0.0232,-0.10464 0,-0.10981 0.0814,-0.17441 0.0814,-0.0646 0.31006,-0.12402 0.0775,-0.0207 0.13823,-0.053 0.0607,-0.0323 0.0633,-0.0413 0.004,-0.009 0.004,-0.0168 v -0.24804 q 0,-0.14599 -0.11369,-0.20542 -0.0375,-0.0194 -0.0904,-0.0194 -0.0517,0 -0.10594,0.0413 -0.053,0.0413 -0.053,0.11756 l 0.006,0.0504 q -0.008,0.0155 -0.093,0.0517 -0.0853,0.0362 -0.0982,0.0388 -0.0207,0 -0.0207,-0.0491 0,-0.0504 0.0297,-0.11111 0.0297,-0.0607 0.084,-0.1111 0.12661,-0.11757 0.28939,-0.11757 0.16278,0 0.26484,0.0904 0.10206,0.0891 0.10206,0.21316 z m -0.59557,-0.0375 q 0,0.062 0.0478,0.10852 0.0478,0.0452 0.10852,0.0452 0.062,0 0.14986,-0.0517 0.0879,-0.053 0.0879,-0.10852 v -0.26225 q 0,-0.0142 -0.006,-0.0142 -0.006,0 -0.009,10e-4 l -0.29973,0.13952 q -0.0465,0.0336 -0.0633,0.0569 -0.0155,0.0232 -0.0155,0.0853 z m 1.82262,-0.15632 -0.003,-0.27259 q 0,-0.16666 -0.0284,-0.23384 -0.0284,-0.0672 -0.0724,-0.10077 -0.0439,-0.0349 -0.11885,-0.0349 -0.0736,0 -0.31394,0.11627 -0.0323,0.0194 -0.0336,0.0362 v 0.69505 q 0,0.13048 0.13953,0.14986 0.0607,0.009 0.0607,0.0297 0,0.0194 -0.0129,0.022 h -0.57619 q -0.0129,-0.003 -0.0129,-0.0181 0,-0.0246 0.0607,-0.0336 0.13952,-0.0194 0.13952,-0.14986 v -0.74156 q 0,-0.0543 -0.0594,-0.0749 -0.0258,-0.009 -0.0556,-0.0142 -0.0297,-0.006 -0.0478,-0.0116 -0.0168,-0.005 -0.022,-0.009 -0.004,-0.005 -0.004,-0.0194 0,-0.0155 0.0194,-0.0258 l 0.32944,-0.15503 q 0.0155,-0.008 0.0194,-0.008 0.022,0 0.022,0.031 v 0.20153 q 0.004,0.0129 0.0103,0.0129 0.008,0 0.0555,-0.0233 0.1111,-0.0555 0.2235,-0.10723 0.1124,-0.0517 0.18603,-0.0517 0.29844,0 0.29844,0.5439 l -0.0116,0.37723 v 0.0749 q 0,0.10076 0.10077,0.13177 0.0426,0.0142 0.0814,0.0207 0.04,0.005 0.0517,0.0103 0.0129,0.005 0.0129,0.0207 0,0.0155 -0.0129,0.0181 h -0.6227 q -0.0129,-0.003 -0.0129,-0.0181 0,-0.0246 0.0607,-0.0336 0.13824,-0.0194 0.13824,-0.1602 0.0103,-0.0646 0.0103,-0.19508 z m 1.10536,0.40695 q -0.0103,0 -0.0103,-0.0103 v -0.031 q 0,-0.0103 0.0103,-0.0103 h 0.031 q 0.1111,0 0.19378,-0.0465 0.0336,-0.0194 0.0556,-0.0594 0.022,-0.0413 0.022,-0.0917 v -1.36683 q 0,-0.0801 -0.10335,-0.12274 -0.0724,-0.031 -0.15374,-0.031 h -0.0284 q -0.0103,0 -0.0103,-0.0103 v -0.031 q 0,-0.0103 0.0103,-0.0103 h 0.87462 q 0.0103,0 0.0103,0.0103 v 0.031 q 0,0.0103 -0.0103,0.0103 h -0.0555 q -0.13307,0 -0.23513,0.0375 -0.0297,0.0103 -0.0388,0.0349 -0.008,0.0233 -0.008,0.0814 v 1.43272 q 0.003,0.022 0.0232,0.0413 0.0207,0.0194 0.0465,0.0194 h 0.51031 q 0.11498,0 0.22608,-0.13565 0.0297,-0.0362 0.0736,-0.0956 0.0439,-0.0607 0.0543,-0.0685 0.0413,-0.031 0.0413,0.001 0,0.008 -0.004,0.0155 l -0.19508,0.38241 q -0.0116,0.0233 -0.0271,0.0233 z m 1.56295,0 q -0.0129,-0.003 -0.0129,-0.0181 0,-0.0233 0.0607,-0.031 0.13953,-0.0207 0.13953,-0.14728 v -0.68342 q 0,-0.0543 -0.0594,-0.0749 -0.0258,-0.009 -0.0555,-0.0142 -0.0297,-0.006 -0.0478,-0.0116 -0.0168,-0.005 -0.022,-0.009 -0.004,-0.005 -0.004,-0.0194 0,-0.0155 0.0194,-0.0258 l 0.32944,-0.15502 q 0.0155,-0.008 0.0194,-0.008 0.022,0 0.022,0.031 v 0.97022 q 0,0.12661 0.13952,0.14728 0.0607,0.008 0.0607,0.0271 0,0.0194 -0.0129,0.022 z m 0.26872,-1.56062 q -0.053,0 -0.0943,-0.0336 -0.04,-0.0336 -0.04,-0.093 0,-0.0607 0.0388,-0.0956 0.0387,-0.0349 0.0917,-0.0349 0.0543,0 0.0904,0.0413 0.0375,0.0413 0.0375,0.0891 0,0.0478 -0.0349,0.0879 -0.0349,0.0388 -0.0891,0.0388 z m 0.7245,0.4793 q 0,0.04 0.0181,0.04 0.0194,0 0.16536,-0.084 0.17053,-0.0724 0.25968,-0.0724 0.0891,0 0.17053,0.0517 0.0814,0.0517 0.13823,0.13565 0.12015,0.17312 0.12015,0.41987 0,0.24676 -0.17182,0.43667 -0.17054,0.18861 -0.45088,0.18861 -0.18216,0 -0.3359,-0.0439 -0.0452,-0.0129 -0.0775,-0.0207 -0.031,-0.008 -0.0349,-0.0155 -0.003,-0.009 -0.003,-0.0207 v -1.7415 q 0,-0.0543 -0.0594,-0.0749 -0.0258,-0.009 -0.0556,-0.0142 -0.0297,-0.006 -0.0478,-0.0116 -0.0168,-0.005 -0.022,-0.009 -0.004,-0.005 -0.004,-0.0194 0,-0.0155 0.0194,-0.0258 l 0.32944,-0.15503 q 0.0155,-0.008 0.0194,-0.008 0.022,0 0.022,0.031 z m 0.27389,0.0413 q -0.11498,0 -0.25839,0.0827 -0.0155,0.009 -0.0155,0.031 v 0.61108 q 0.0129,0.11756 0.10206,0.18345 0.0891,0.0659 0.19508,0.0659 0.18604,0 0.2868,-0.14728 0.10207,-0.14728 0.10207,-0.3359 0,-0.18862 -0.10336,-0.33977 -0.10335,-0.15115 -0.30876,-0.15115 z m 1.55003,0.11368 q -0.0155,-0.003 -0.0452,-0.0168 -0.10723,-0.0491 -0.16795,-0.0491 -0.0607,0 -0.1279,0.0762 -0.0659,0.0749 -0.0659,0.13565 v 0.58394 q 0,0.0969 0.11239,0.12919 0.0491,0.0129 0.0917,0.0194 0.0426,0.005 0.0543,0.0103 0.0129,0.005 0.0129,0.0207 0,0.0142 -0.0129,0.0168 h -0.64725 q -0.0129,-0.003 -0.0129,-0.0181 0,-0.0233 0.0607,-0.031 0.13953,-0.0207 0.13953,-0.14728 v -0.68342 q 0,-0.0543 -0.0594,-0.0749 -0.0258,-0.009 -0.0555,-0.0142 -0.0297,-0.006 -0.0478,-0.0116 -0.0168,-0.005 -0.022,-0.009 -0.004,-0.005 -0.004,-0.0194 0,-0.0155 0.0194,-0.0258 l 0.32944,-0.15502 q 0.0155,-0.008 0.0194,-0.008 0.022,0 0.022,0.031 v 0.20929 q 0,0.0155 0.008,0.0155 0.0103,0 0.053,-0.0607 0.12273,-0.17182 0.20283,-0.17182 0.0452,0 0.13823,0.0362 0.0943,0.0362 0.0943,0.0607 0,0.0297 -0.0297,0.0904 -0.0297,0.0607 -0.0594,0.0607 z m 0.91183,0.71314 q 0,0.0336 0.031,0.0543 0.0323,0.0194 0.0736,0.0194 0.0413,0 0.0685,-0.0207 0.0284,-0.022 0.0388,-0.022 0.0103,0 0.0103,0.0284 0,0.0271 -0.0258,0.0465 -0.19379,0.14211 -0.26226,0.14211 -0.0827,0 -0.13436,-0.17182 -0.004,-0.0129 -0.006,-0.0116 -0.16019,0.12015 -0.20153,0.1447 -0.10594,0.0607 -0.21317,0.0194 -0.10594,-0.0413 -0.15374,-0.13695 -0.0232,-0.0491 -0.0232,-0.10464 0,-0.10981 0.0814,-0.17441 0.0814,-0.0646 0.31006,-0.12402 0.0775,-0.0207 0.13823,-0.053 0.0607,-0.0323 0.0633,-0.0413 0.004,-0.009 0.004,-0.0168 v -0.24804 q 0,-0.14599 -0.11369,-0.20542 -0.0375,-0.0194 -0.0904,-0.0194 -0.0517,0 -0.10594,0.0413 -0.053,0.0413 -0.053,0.11756 l 0.006,0.0504 q -0.008,0.0155 -0.093,0.0517 -0.0853,0.0362 -0.0982,0.0388 -0.0207,0 -0.0207,-0.0491 0,-0.0504 0.0297,-0.11111 0.0297,-0.0607 0.084,-0.1111 0.12661,-0.11757 0.28939,-0.11757 0.16278,0 0.26484,0.0904 0.10206,0.0891 0.10206,0.21316 z m -0.59557,-0.0375 q 0,0.062 0.0478,0.10852 0.0478,0.0452 0.10852,0.0452 0.062,0 0.14986,-0.0517 0.0879,-0.053 0.0879,-0.10852 v -0.26225 q 0,-0.0142 -0.006,-0.0142 -0.006,0 -0.009,0.001 l -0.29973,0.13952 q -0.0465,0.0336 -0.0633,0.0569 -0.0155,0.0232 -0.0155,0.0853 z m 1.65984,-0.67567 q -0.0155,-0.003 -0.0452,-0.0168 -0.10723,-0.0491 -0.16795,-0.0491 -0.0607,0 -0.1279,0.0762 -0.0659,0.0749 -0.0659,0.13565 v 0.58394 q 0,0.0969 0.1124,0.12919 0.0491,0.0129 0.0917,0.0194 0.0426,0.005 0.0543,0.0103 0.0129,0.005 0.0129,0.0207 0,0.0142 -0.0129,0.0168 h -0.64724 q -0.0129,-0.003 -0.0129,-0.0181 0,-0.0233 0.0607,-0.031 0.13952,-0.0207 0.13952,-0.14728 v -0.68342 q 0,-0.0543 -0.0594,-0.0749 -0.0258,-0.009 -0.0556,-0.0142 -0.0297,-0.006 -0.0478,-0.0116 -0.0168,-0.005 -0.022,-0.009 -0.004,-0.005 -0.004,-0.0194 0,-0.0155 0.0194,-0.0258 l 0.32944,-0.15502 q 0.0155,-0.008 0.0194,-0.008 0.022,0 0.022,0.031 v 0.20929 q 0,0.0155 0.008,0.0155 0.0103,0 0.053,-0.0607 0.12273,-0.17182 0.20283,-0.17182 0.0452,0 0.13824,0.0362 0.0943,0.0362 0.0943,0.0607 0,0.0297 -0.0297,0.0904 -0.0297,0.0607 -0.0594,0.0607 z m 1.37434,-0.23641 q 0.0142,0.004 0.0142,0.0181 0,0.0142 -0.003,0.0194 -0.003,0.004 -0.0129,0.008 -0.009,0.003 -0.0271,0.005 -0.0168,0.003 -0.0543,0.0103 -0.0375,0.006 -0.0672,0.0517 -0.0297,0.0452 -0.0633,0.12532 l -0.6072,1.50507 -0.084,0.17828 q -0.0323,0.0685 -0.13565,0.0685 -0.0452,0 -0.0724,-0.0297 -0.0271,-0.0297 -0.0271,-0.071 0,-0.0401 0.0194,-0.0594 0.0207,-0.0181 0.0478,-0.0297 0.0271,-0.0116 0.0556,-0.022 0.0297,-0.009 0.0659,-0.0439 0.0362,-0.0336 0.0426,-0.0504 0.21705,-0.48576 0.21705,-0.50772 0,-0.022 -0.0258,-0.0543 l -0.42633,-0.89012 q -0.0478,-0.13049 -0.16408,-0.16795 -0.009,-0.003 -0.022,-0.004 -0.0543,-0.005 -0.0543,-0.0323 0,-0.0271 0.031,-0.0271 h 0.5749 q 0.0103,0 0.0103,0.0207 0,0.0194 -0.0181,0.0271 -0.0181,0.006 -0.0801,0.006 -0.0995,0 -0.0995,0.0775 l 0.0116,0.031 0.3346,0.71701 q 0.0258,0.0659 0.0517,-0.004 0.003,-0.006 0.0323,-0.084 0.1757,-0.44571 0.19637,-0.51548 0.022,-0.0698 0.022,-0.10464 0,-0.0349 -0.0375,-0.0736 -0.0362,-0.0388 -0.10077,-0.0388 -0.0633,0 -0.0633,-0.0375 0,-0.022 0.0284,-0.022 z"
       id="text1"
       style="font-size:2.64583px;line-height:1;font-family:Cardo;-inkscape-font-specification:Cardo;letter-spacing:-0.0661458px;word-spacing:0px;fill:#0077be;stroke-width:0.199964;stroke-linecap:round;stroke-linejoin:round"
       aria-label="electronic Babylonian Library" /><g
       id="g5" /><path
       style="display:inline;fill:none;fill-opacity:1;stroke:#000000;stroke-width:0.2;stroke-linecap:square;stroke-linejoin:miter;stroke-dasharray:none;stroke-opacity:1"
       d="M 83.255556,119.28299 H 114.3441 m 0,-6.92327 H 83.255556"
       id="path5"
       sodipodi:nodetypes="cccc" /><path
       style="display:inline;fill:none;fill-opacity:1;stroke:#000000;stroke-width:0.2;stroke-linecap:square;stroke-linejoin:miter;stroke-dasharray:none;stroke-opacity:1"
       d="M 83.255556,115.82135 H 114.3441"
       id="path6" /><path
       id="rect6"
       style="display:inline;stroke:#000000;stroke-width:0.3;stroke-linecap:square"
       d="m 93.80262,112.52348 h 10.15471 v 3.04788 H 93.80262 Z" /><path
       style="font-size:3.175px;line-height:1;font-family:Cardo;-inkscape-font-specification:Cardo;letter-spacing:0px;word-spacing:0px;stroke-width:0.2;stroke-linecap:square"
       d="m 82.541292,117.54707 q 0,-0.38292 0.21394,-0.72244 0.213941,-0.34106 0.47594,-0.34106 0.206189,0 0.36897,0.15813 0.164331,0.15658 0.248047,0.41083 0.08372,0.25424 0.08372,0.53175 0,0.42323 -0.190686,0.74104 -0.125574,0.21084 -0.306958,0.2961 -0.09302,0.0419 -0.192237,0.0419 -0.187585,0 -0.348816,-0.15193 -0.16123,-0.15348 -0.257348,-0.37982 -0.09457,-0.22789 -0.09457,-0.44028 z m 0.705383,1.02474 q 0.434082,0 0.434082,-0.90072 0,-0.37672 -0.0155,-0.50694 -0.03256,-0.27286 -0.122473,-0.41548 -0.111621,-0.17363 -0.320911,-0.17363 -0.393774,0 -0.42633,0.7953 -0.0047,0.11472 -0.0047,0.27595 0,0.42323 0.09147,0.65577 0.10697,0.26975 0.364319,0.26975 z m 2.981214,-1.20147 q 0,0.10852 -0.125574,0.10852 -0.06356,0 -0.108521,-0.0357 -0.04341,-0.0372 -0.06821,-0.062 -0.02325,-0.0264 -0.04961,-0.0481 -0.111621,-0.0915 -0.272851,-0.0202 -0.159681,0.0713 -0.246497,0.30386 -0.04806,0.12868 -0.04806,0.2558 0,0.27285 0.124023,0.44648 0.124024,0.17209 0.379822,0.17209 0.190686,0 0.342615,-0.17054 0.04651,-0.0512 0.05581,-0.0512 0.0093,0 0.02015,0.009 0.01085,0.009 0.01085,0.0279 0,0.0171 -0.0093,0.0264 -0.237194,0.33021 -0.596862,0.33021 -0.26045,0 -0.427881,-0.19379 -0.165882,-0.19378 -0.165882,-0.44338 0.0016,-0.46199 0.223243,-0.66508 0.195337,-0.17828 0.556555,-0.17828 0.223242,0 0.296106,0.045 0.07286,0.045 0.102319,0.11317 0.0078,0.0155 0.0078,0.0295 z m 2.274279,0.76274 -0.0031,-0.32711 q 0,-0.19999 -0.03411,-0.28061 -0.03411,-0.0806 -0.08682,-0.12092 -0.05271,-0.0419 -0.142627,-0.0419 -0.08837,0 -0.376721,0.13953 -0.03876,0.0233 -0.04031,0.0434 v 0.83406 q 0,0.15658 0.167432,0.17983 0.07286,0.0109 0.07286,0.0357 0,0.0232 -0.0155,0.0263 h -0.69143 q -0.0155,-0.003 -0.0155,-0.0217 0,-0.0295 0.07286,-0.0403 0.167431,-0.0233 0.167431,-0.17983 v -0.77205 q 0,-0.2434 -0.300757,-0.2434 -0.11007,0 -0.305407,0.13023 -0.04961,0.0326 -0.07286,0.0605 v 0.82476 q 0,0.15658 0.167432,0.17983 0.07286,0.0109 0.07286,0.0357 0,0.0232 -0.0155,0.0263 h -0.69143 q -0.0155,-0.003 -0.0155,-0.0217 0,-0.0295 0.07286,-0.0403 0.167431,-0.0233 0.167431,-0.17673 v -0.89297 q 0,-0.0651 -0.07131,-0.0899 -0.03101,-0.0108 -0.06666,-0.017 -0.03566,-0.008 -0.05736,-0.0139 -0.02015,-0.006 -0.02635,-0.0109 -0.0046,-0.006 -0.0046,-0.0232 0,-0.0186 0.02325,-0.031 l 0.395325,-0.18603 q 0.0186,-0.009 0.02325,-0.009 0.02635,0 0.02635,0.0372 v 0.25735 q 0.0015,0.009 0.01085,0.009 0.01085,0 0.05116,-0.0217 0.04186,-0.0217 0.10852,-0.0605 0.06666,-0.0403 0.175183,-0.093 0.110071,-0.0527 0.232544,-0.0527 0.196887,0 0.282154,0.16898 0.03256,0.0682 0.05891,0.0589 0.02635,-0.0108 0.08216,-0.0387 0.131775,-0.0651 0.266651,-0.12713 0.134875,-0.062 0.223242,-0.062 0.358117,0 0.358117,0.65267 l -0.01395,0.45269 v 0.0899 q 0,0.12092 0.120923,0.15813 0.05116,0.017 0.09767,0.0248 0.04806,0.006 0.06201,0.0124 0.0155,0.006 0.0155,0.0248 0,0.0186 -0.0155,0.0217 H 88.26656 q -0.0155,-0.003 -0.0155,-0.0217 0,-0.0295 0.07286,-0.0403 0.165881,-0.0233 0.165881,-0.19224 0.0124,-0.0775 0.0124,-0.23409 z"
       id="text6"
       aria-label="0 cm" /><path
       d="m 93.226494,117.0471 q -0.01085,0 -0.03101,-0.0403 0,-0.005 0.05581,-0.0403 0.05581,-0.0372 0.221691,-0.18448 0.165882,-0.14728 0.274402,-0.2775 h 0.08682 q 0.02015,0 0.0248,0.006 0.0047,0.006 0.0047,0.0233 v 1.89136 q 0,0.0977 0.02015,0.11007 0.07596,0.045 0.308508,0.045 0.0124,0 0.0124,0.0124 v 0.0372 q 0,0.0124 -0.0124,0.0124 H 93.25905 q -0.0124,0 -0.0124,-0.0124 v -0.0372 q 0,-0.0124 0.0124,-0.0124 0.07751,-0.005 0.134875,-0.006 0.05736,-0.003 0.120923,-0.009 0.06356,-0.006 0.08837,-0.0202 0.02635,-0.0139 0.03101,-0.0419 0.0047,-0.0279 0.0047,-0.0729 v -1.65106 q 0.0015,-0.003 -0.03411,0.0248 -0.201538,0.16123 -0.368969,0.24185 z"
       id="text7"
       style="font-size:3.175px;line-height:1;font-family:Cardo;-inkscape-font-specification:Cardo;letter-spacing:0px;word-spacing:0px;stroke-width:0.2;stroke-linecap:square"
       aria-label="1" /><path
       d="m 103.43416,117.14942 -0.0372,0.005 q -0.0155,0 -0.0155,-0.009 0,-0.0434 0.0512,-0.19069 0.0512,-0.14883 0.11783,-0.21859 0.22479,-0.23099 0.50539,-0.23099 0.2806,0 0.45114,0.17673 0.17053,0.17518 0.17053,0.44183 0,0.2651 -0.34417,0.58601 -0.10852,0.10232 -0.18138,0.16433 -0.093,0.0791 -0.32866,0.30851 -0.2341,0.2279 -0.2341,0.25115 h 0.87282 q 0.11317,0 0.15968,-0.0636 0.0279,-0.0372 0.0713,-0.19689 h 0.0589 l -0.0667,0.41858 q -0.008,0.0357 -0.0357,0.0512 h -1.28984 q -0.008,0 -0.008,-0.0403 0,-0.0388 0.0713,-0.12092 0.0729,-0.0822 0.18449,-0.19379 0.11317,-0.11317 0.30696,-0.30851 0.49299,-0.50074 0.49299,-0.8015 0,-0.18448 -0.13488,-0.33331 -0.13332,-0.15038 -0.31161,-0.15038 -0.17673,0 -0.31626,0.11937 -0.13642,0.11938 -0.18448,0.30851 -0.006,0.0279 -0.0264,0.0279 z"
       id="text10"
       style="font-size:3.175px;line-height:1;font-family:Cardo;-inkscape-font-specification:Cardo;letter-spacing:0px;word-spacing:0px;stroke-width:0.2;stroke-linecap:square"
       aria-label="2" /><path
       d="m 114.48285,117.33313 q 0.0186,-0.003 0.0558,-0.003 0.17983,0 0.33021,0.15038 0.15038,0.15037 0.15038,0.38447 0,0.23254 -0.12402,0.41083 -0.12248,0.17828 -0.30696,0.2837 -0.18294,0.10387 -0.35502,0.10387 -0.37672,0 -0.51315,-0.15193 -0.0357,-0.0388 -0.0512,-0.093 0,-0.10387 0.12867,-0.10387 0.0326,0 0.13022,0.0775 0.0992,0.076 0.18604,0.12557 0.0868,0.0496 0.19534,0.0465 0.20308,-0.006 0.33021,-0.19534 0.12867,-0.19068 0.12867,-0.41547 0,-0.22635 -0.11162,-0.34107 -0.11162,-0.11472 -0.2651,-0.11472 -0.0822,0 -0.13642,0.031 -0.0543,0.0294 -0.0636,0.0418 -0.009,0.0124 -0.017,0.0124 -0.006,0 -0.017,-0.0124 -0.0109,-0.0124 -0.0109,-0.0217 0,-0.009 0.009,-0.0186 0.0109,-0.0109 0.0248,-0.0217 0.014,-0.0124 0.0279,-0.0232 0.38602,-0.30076 0.38602,-0.5271 0,-0.13023 -0.0977,-0.21704 -0.0977,-0.0868 -0.20774,-0.0868 -0.28525,0 -0.46043,0.32091 -0.002,0.002 -0.0124,0.002 -0.009,0 -0.0294,-0.009 -0.0202,-0.009 -0.0202,-0.0139 0,-0.005 0.003,-0.014 0.005,-0.009 0.0248,-0.0605 0.0202,-0.0512 0.0837,-0.13022 0.0651,-0.0806 0.14263,-0.13953 0.16588,-0.12557 0.29921,-0.12557 0.24494,0 0.37207,0.0977 0.12712,0.0977 0.12712,0.27285 0,0.17363 -0.18913,0.36277 -0.0326,0.0248 -0.093,0.0667 -0.0589,0.0403 -0.0589,0.0481 v 0.002 z"
       id="text11"
       style="font-size:3.175px;line-height:1;font-family:Cardo;-inkscape-font-specification:Cardo;letter-spacing:0px;word-spacing:0px;stroke-width:0.2;stroke-linecap:square"
       aria-label="3" /><path
       d="m 114.3441,119.28299 v -0.32808 m 0,-2.83751 v -3.75768"
       style="display:inline;fill:none;fill-opacity:1;stroke:#000000;stroke-width:0.2;stroke-linecap:square;stroke-linejoin:miter;stroke-dasharray:none;stroke-opacity:1"
       id="path1-8"
       sodipodi:nodetypes="cccc" /><path
       d="m 114.3441,119.28299 v -0.32808 m 0,-2.83751 v -3.75768"
       style="display:inline;fill:none;fill-opacity:1;stroke:#000000;stroke-width:0.2;stroke-linecap:square;stroke-linejoin:miter;stroke-dasharray:none;stroke-opacity:1"
       id="path11"
       sodipodi:nodetypes="cccc" /><path
       d="m 83.255556,119.28299 v -0.32808 m 0,-2.83751 v -3.75768"
       style="display:inline;fill:none;fill-opacity:1;stroke:#000000;stroke-width:0.2;stroke-linecap:square;stroke-linejoin:miter;stroke-dasharray:none;stroke-opacity:1"
       id="path11-6"
       sodipodi:nodetypes="cccc" /><g
       id="g1"
       transform="matrix(0.76253246,0,0,0.76253246,28.523857,26.764258)"
       style="stroke-width:1.31142"><path
         id="rect2"
         style="display:inline;fill:#0077be;stroke-width:0.262237;stroke-linecap:round;stroke-linejoin:round"
         d="m 115.66012,112.13576 h 11.79981 v 15.08072 h -11.79981 z" /><g
         id="g7"
         transform="matrix(1.271754,0,0,1.1150147,-29.147555,-13.187204)"
         style="display:inline;stroke-width:1.10129"><path
           style="-inkscape-font-specification:Junicode;fill:#ffffff;stroke-width:0.244693"
           d="m 106.19205,-126.43588 c 0,-0.46569 0.14782,-0.86859 0.44346,-1.2087 0.29825,-0.34273 0.63182,-0.51409 1.00071,-0.51409 0.36889,0 0.66714,0.1282 0.89475,0.38459 0.22761,0.25639 0.34142,0.46569 0.34142,0.6279 0,0.16221 -0.0667,0.24462 -0.20014,0.24723 h -1.76204 c -0.0785,0 -0.11773,0.0863 -0.11773,0.25901 0,0.4186 0.0994,0.77833 0.29825,1.0792 0.20145,0.29825 0.47878,0.44737 0.83197,0.44737 0.26424,0 0.52717,-0.0785 0.78879,-0.23546 0.0131,-0.008 0.0275,-0.0118 0.0432,-0.0118 0.0314,0 0.0589,0.0144 0.0824,0.0432 0.0183,0.0183 0.0275,0.0458 0.0275,0.0824 0,0.0131 -0.005,0.0235 -0.0157,0.0314 -0.41337,0.36627 -0.82019,0.54941 -1.22048,0.54941 -0.40029,0 -0.7404,-0.18052 -1.02033,-0.54156 -0.27733,-0.36104 -0.41599,-0.77441 -0.41599,-1.2401 z m 0.69069,-0.78094 c 0,0.0366 0.0314,0.0549 0.0942,0.0549 h 1.25971 c 0.0393,0 0.0589,-0.0222 0.0589,-0.0667 0,-0.11511 -0.072,-0.26031 -0.21584,-0.4356 -0.14128,-0.17529 -0.2891,-0.26293 -0.44345,-0.26293 -0.17006,0 -0.31788,0.0576 -0.44346,0.17267 -0.12296,0.1125 -0.22238,0.27209 -0.29825,0.47877 -0.008,0.0209 -0.0118,0.0406 -0.0118,0.0589 z"
           id="text1-0"
           transform="matrix(0,1.0679754,-0.93635114,0,0,0)"
           aria-label="eBL"
           sodipodi:nodetypes="ccssscsscscscscsccccssscscccc" /><path
           d="m 117.28468,117.46771 h 2.51357 c 0.18694,0 0.28041,-0.20892 0.28041,-0.62678 0,-0.0309 0.0323,-0.0464 0.0969,-0.0464 0.0646,0 0.0969,0.0154 0.0969,0.0464 -0.0102,0.25204 -0.0154,0.51735 -0.0154,0.79592 0,0.27857 0.003,0.47865 0.007,0.60026 0.005,0.1216 0.007,0.26088 0.007,0.41786 0,0.38248 -0.0688,0.70305 -0.20649,0.96173 -0.13766,0.25868 -0.34331,0.38801 -0.61692,0.38801 -0.3382,0 -0.58464,-0.21666 -0.73929,-0.65 -0.0119,-0.0332 -0.023,-0.0498 -0.0331,-0.0498 -0.0119,0 -0.022,0.0166 -0.0306,0.0498 -0.0595,0.23878 -0.16826,0.45765 -0.32631,0.65664 -0.15635,0.20119 -0.36454,0.30179 -0.62457,0.30179 -0.24133,0 -0.45206,-0.11608 -0.63221,-0.34823 -0.18015,-0.22992 -0.27022,-0.66658 -0.27022,-1.30994 0,-0.1415 0.003,-0.29626 0.0102,-0.46429 0.005,-0.16802 0.007,-0.38469 0.007,-0.65001 0,-0.2653 -0.007,-0.4886 -0.0179,-0.6699 0,-0.0287 0.0323,-0.0431 0.0969,-0.0431 0.0646,0 0.0969,0.0143 0.0969,0.0431 0,0.39797 0.0994,0.59694 0.29827,0.59694 z m 1.5372,0.53062 c -0.0611,0 -0.0918,0.0874 -0.0918,0.26199 0,0.78266 0.23708,1.17398 0.71124,1.17398 0.45037,0 0.67556,-0.42117 0.67556,-1.26352 0,-0.11496 -0.0569,-0.17245 -0.1708,-0.17245 z m -1.30522,0 c -0.37389,0 -0.56083,0.20341 -0.56083,0.61021 0,0.73623 0.26766,1.10433 0.80301,1.10433 0.35859,0 0.60418,-0.2454 0.73674,-0.73622 0.0493,-0.19235 0.0748,-0.47977 0.0765,-0.86225 0,-0.0774 -0.0255,-0.11607 -0.0765,-0.11607 z m -0.25493,3.61482 h 2.53652 c 0.19544,0 0.29317,-0.20894 0.29317,-0.62679 0,-0.031 0.0323,-0.0465 0.0969,-0.0465 0.0646,0 0.0969,0.0155 0.0969,0.0465 -0.008,0.1017 -0.0126,0.39132 -0.0126,0.86887 0,0.47756 0.005,0.76608 0.0126,0.86557 0,0.0287 -0.0323,0.0431 -0.0969,0.0431 -0.0645,0 -0.0969,-0.0143 -0.0969,-0.0431 0,-0.3847 -0.0977,-0.57705 -0.29317,-0.57705 h -2.28159 c -0.0867,0 -0.17079,0.0155 -0.25238,0.0464 -0.0799,0.0332 -0.14955,0.094 -0.20904,0.1824 -0.0578,0.0906 -0.0867,0.21114 -0.0867,0.36148 l 0.0331,1.03801 c 0.008,0.27635 0.0859,0.49082 0.23198,0.64336 0.14616,0.15477 0.32717,0.23216 0.543,0.23216 0.0221,0 0.0331,0.0431 0.0331,0.12933 0,0.0862 -0.0111,0.12934 -0.0331,0.12934 h -0.89735 c -0.0442,0 -0.0697,-0.0276 -0.0765,-0.0829 -0.007,-0.0553 -0.0102,-0.11716 -0.0102,-0.1857 0.002,-0.31617 0.005,-0.79373 0.0102,-1.43267 0.005,-0.63894 0.007,-1.08223 0.007,-1.32985 0,-0.24762 -0.007,-0.52951 -0.0179,-0.84566 0,-0.0288 0.0323,-0.0431 0.0969,-0.0431 0.0645,0 0.0969,0.0143 0.0969,0.0431 0,0.38911 0.0918,0.58367 0.27532,0.58367 z"
           style="-inkscape-font-specification:Junicode;fill:#ffffff;stroke-width:0.244693"
           id="path1" /></g></g></g></svg>
