<?xml version="1.0" encoding="UTF-8" standalone="no"?>
<!-- Created with Inkscape (http://www.inkscape.org/) -->

<svg
   width="32.477947mm"
   height="7.12327mm"
   viewBox="0 0 32.477947 7.1232704"
   version="1.1"
   id="svg1"
   inkscape:version="1.4 (86a8ad7, 2024-10-11)"
   sodipodi:docname="General_External_photo_ruler.svg"
   inkscape:export-filename="eBL Neu.png"
   inkscape:export-xdpi="500"
   inkscape:export-ydpi="500"
   xml:space="preserve"
   xmlns:inkscape="http://www.inkscape.org/namespaces/inkscape"
   xmlns:sodipodi="http://sodipodi.sourceforge.net/DTD/sodipodi-0.dtd"
   xmlns="http://www.w3.org/2000/svg"
   xmlns:svg="http://www.w3.org/2000/svg"><sodipodi:namedview
     id="namedview1"
     pagecolor="#ffffff"
     bordercolor="#000000"
     borderopacity="0.25"
     inkscape:showpageshadow="2"
     inkscape:pageopacity="0.0"
     inkscape:pagecheckerboard="0"
     inkscape:deskcolor="#d1d1d1"
     inkscape:document-units="mm"
     inkscape:zoom="4.1373683"
     inkscape:cx="63.929527"
     inkscape:cy="47.493959"
     inkscape:window-width="1920"
     inkscape:window-height="1009"
     inkscape:window-x="-8"
     inkscape:window-y="-8"
     inkscape:window-maximized="1"
     inkscape:current-layer="layer1" /><defs
     id="defs1"><clipPath
       clipPathUnits="userSpaceOnUse"
       id="clipPath18"><path
         d="M 0,36.214 H 109 V 0 H 0 Z"
         id="path16" /></clipPath><clipPath
       clipPathUnits="userSpaceOnUse"
       id="clipPath32"><path
         d="M 0,36.214 H 109 V 0 H 0 Z"
         id="path30" /></clipPath><clipPath
       clipPathUnits="userSpaceOnUse"
       id="clipPath44"><path
         d="M 0,36.214 H 109 V 0 H 0 Z"
         id="path42" /></clipPath><clipPath
       clipPathUnits="userSpaceOnUse"
       id="clipPath79"><path
         d="M 0,500 H 1000 V 0 H 0 Z"
         transform="translate(-892.76762,-277.71681)"
         id="path79" /></clipPath><clipPath
       clipPathUnits="userSpaceOnUse"
       id="clipPath81"><path
         d="M 0,500 H 1000 V 0 H 0 Z"
         id="path81" /></clipPath><clipPath
       clipPathUnits="userSpaceOnUse"
       id="clipPath83"><path
         d="M 0,500 H 1000 V 0 H 0 Z"
         transform="translate(-104.5366,-316.49321)"
         id="path83" /></clipPath><clipPath
       clipPathUnits="userSpaceOnUse"
       id="clipPath85"><path
         d="M 0,500 H 1000 V 0 H 0 Z"
         transform="translate(-153.4687,-303.87161)"
         id="path85" /></clipPath><clipPath
       clipPathUnits="userSpaceOnUse"
       id="clipPath87"><path
         d="M 0,500 H 1000 V 0 H 0 Z"
         transform="translate(-173.041,-300.96341)"
         id="path87" /></clipPath><clipPath
       clipPathUnits="userSpaceOnUse"
       id="clipPath89"><path
         d="M 0,500 H 1000 V 0 H 0 Z"
         transform="translate(-370.89651,-332.02341)"
         id="path89" /></clipPath><clipPath
       clipPathUnits="userSpaceOnUse"
       id="clipPath91"><path
         d="M 0,500 H 1000 V 0 H 0 Z"
         transform="translate(-627.29302,-328.91751)"
         id="path91" /></clipPath><clipPath
       clipPathUnits="userSpaceOnUse"
       id="clipPath93"><path
         d="M 0,500 H 1000 V 0 H 0 Z"
         transform="translate(-881.56052,-330.15041)"
         id="path93" /></clipPath></defs><g
     inkscape:groupmode="layer"
     id="layer4"
     inkscape:label="Layer 2"
     style="display:inline"
     transform="translate(0.03956538,-0.07638977)" /><g
     inkscape:label="Layer 1"
     inkscape:groupmode="layer"
     id="layer1"
     transform="translate(-82.541292,-112.25972)"
     style="display:inline"><g
       id="g5" /><path
       style="display:inline;fill:none;fill-opacity:1;stroke:#000000;stroke-width:0.2;stroke-linecap:square;stroke-linejoin:miter;stroke-dasharray:none;stroke-opacity:1"
       d="M 83.255556,119.28299 H 114.3441 m 0,-6.92327 H 83.255556"
       id="path5"
       sodipodi:nodetypes="cccc" /><path
       style="display:inline;fill:none;fill-opacity:1;stroke:#000000;stroke-width:0.2;stroke-linecap:square;stroke-linejoin:miter;stroke-dasharray:none;stroke-opacity:1"
       d="M 83.255556,115.82135 H 114.3441"
       id="path6" /><path
       id="rect6"
       style="display:inline;stroke:#000000;stroke-width:0.3;stroke-linecap:square"
       d="m 93.80262,112.52348 h 10.15471 v 3.04788 H 93.80262 Z" /><path
       style="font-size:3.175px;line-height:1;font-family:Cardo;-inkscape-font-specification:Cardo;letter-spacing:0px;word-spacing:0px;stroke-width:0.2;stroke-linecap:square"
       d="m 82.541292,117.54707 q 0,-0.38292 0.21394,-0.72244 0.213941,-0.34106 0.47594,-0.34106 0.206189,0 0.36897,0.15813 0.164331,0.15658 0.248047,0.41083 0.08372,0.25424 0.08372,0.53175 0,0.42323 -0.190686,0.74104 -0.125574,0.21084 -0.306958,0.2961 -0.09302,0.0419 -0.192237,0.0419 -0.187585,0 -0.348816,-0.15193 -0.16123,-0.15348 -0.257348,-0.37982 -0.09457,-0.22789 -0.09457,-0.44028 z m 0.705383,1.02474 q 0.434082,0 0.434082,-0.90072 0,-0.37672 -0.0155,-0.50694 -0.03256,-0.27286 -0.122473,-0.41548 -0.111621,-0.17363 -0.320911,-0.17363 -0.393774,0 -0.42633,0.7953 -0.0047,0.11472 -0.0047,0.27595 0,0.42323 0.09147,0.65577 0.10697,0.26975 0.364319,0.26975 z m 2.981214,-1.20147 q 0,0.10852 -0.125574,0.10852 -0.06356,0 -0.108521,-0.0357 -0.04341,-0.0372 -0.06821,-0.062 -0.02325,-0.0264 -0.04961,-0.0481 -0.111621,-0.0915 -0.272851,-0.0202 -0.159681,0.0713 -0.246497,0.30386 -0.04806,0.12868 -0.04806,0.2558 0,0.27285 0.124023,0.44648 0.124024,0.17209 0.379822,0.17209 0.190686,0 0.342615,-0.17054 0.04651,-0.0512 0.05581,-0.0512 0.0093,0 0.02015,0.009 0.01085,0.009 0.01085,0.0279 0,0.0171 -0.0093,0.0264 -0.237194,0.33021 -0.596862,0.33021 -0.26045,0 -0.427881,-0.19379 -0.165882,-0.19378 -0.165882,-0.44338 0.0016,-0.46199 0.223243,-0.66508 0.195337,-0.17828 0.556555,-0.17828 0.223242,0 0.296106,0.045 0.07286,0.045 0.102319,0.11317 0.0078,0.0155 0.0078,0.0295 z m 2.274279,0.76274 -0.0031,-0.32711 q 0,-0.19999 -0.03411,-0.28061 -0.03411,-0.0806 -0.08682,-0.12092 -0.05271,-0.0419 -0.142627,-0.0419 -0.08837,0 -0.376721,0.13953 -0.03876,0.0233 -0.04031,0.0434 v 0.83406 q 0,0.15658 0.167432,0.17983 0.07286,0.0109 0.07286,0.0357 0,0.0232 -0.0155,0.0263 h -0.69143 q -0.0155,-0.003 -0.0155,-0.0217 0,-0.0295 0.07286,-0.0403 0.167431,-0.0233 0.167431,-0.17983 v -0.77205 q 0,-0.2434 -0.300757,-0.2434 -0.11007,0 -0.305407,0.13023 -0.04961,0.0326 -0.07286,0.0605 v 0.82476 q 0,0.15658 0.167432,0.17983 0.07286,0.0109 0.07286,0.0357 0,0.0232 -0.0155,0.0263 h -0.69143 q -0.0155,-0.003 -0.0155,-0.0217 0,-0.0295 0.07286,-0.0403 0.167431,-0.0233 0.167431,-0.17673 v -0.89297 q 0,-0.0651 -0.07131,-0.0899 -0.03101,-0.0108 -0.06666,-0.017 -0.03566,-0.008 -0.05736,-0.0139 -0.02015,-0.006 -0.02635,-0.0109 -0.0046,-0.006 -0.0046,-0.0232 0,-0.0186 0.02325,-0.031 l 0.395325,-0.18603 q 0.0186,-0.009 0.02325,-0.009 0.02635,0 0.02635,0.0372 v 0.25735 q 0.0015,0.009 0.01085,0.009 0.01085,0 0.05116,-0.0217 0.04186,-0.0217 0.10852,-0.0605 0.06666,-0.0403 0.175183,-0.093 0.110071,-0.0527 0.232544,-0.0527 0.196887,0 0.282154,0.16898 0.03256,0.0682 0.05891,0.0589 0.02635,-0.0108 0.08216,-0.0387 0.131775,-0.0651 0.266651,-0.12713 0.134875,-0.062 0.223242,-0.062 0.358117,0 0.358117,0.65267 l -0.01395,0.45269 v 0.0899 q 0,0.12092 0.120923,0.15813 0.05116,0.017 0.09767,0.0248 0.04806,0.006 0.06201,0.0124 0.0155,0.006 0.0155,0.0248 0,0.0186 -0.0155,0.0217 H 88.26656 q -0.0155,-0.003 -0.0155,-0.0217 0,-0.0295 0.07286,-0.0403 0.165881,-0.0233 0.165881,-0.19224 0.0124,-0.0775 0.0124,-0.23409 z"
       id="text6"
       aria-label="0 cm" /><path
       d="m 93.226494,117.0471 q -0.01085,0 -0.03101,-0.0403 0,-0.005 0.05581,-0.0403 0.05581,-0.0372 0.221691,-0.18448 0.165882,-0.14728 0.274402,-0.2775 h 0.08682 q 0.02015,0 0.0248,0.006 0.0047,0.006 0.0047,0.0233 v 1.89136 q 0,0.0977 0.02015,0.11007 0.07596,0.045 0.308508,0.045 0.0124,0 0.0124,0.0124 v 0.0372 q 0,0.0124 -0.0124,0.0124 H 93.25905 q -0.0124,0 -0.0124,-0.0124 v -0.0372 q 0,-0.0124 0.0124,-0.0124 0.07751,-0.005 0.134875,-0.006 0.05736,-0.003 0.120923,-0.009 0.06356,-0.006 0.08837,-0.0202 0.02635,-0.0139 0.03101,-0.0419 0.0047,-0.0279 0.0047,-0.0729 v -1.65106 q 0.0015,-0.003 -0.03411,0.0248 -0.201538,0.16123 -0.368969,0.24185 z"
       id="text7"
       style="font-size:3.175px;line-height:1;font-family:Cardo;-inkscape-font-specification:Cardo;letter-spacing:0px;word-spacing:0px;stroke-width:0.2;stroke-linecap:square"
       aria-label="1" /><path
       d="m 103.43416,117.14942 -0.0372,0.005 q -0.0155,0 -0.0155,-0.009 0,-0.0434 0.0512,-0.19069 0.0512,-0.14883 0.11783,-0.21859 0.22479,-0.23099 0.50539,-0.23099 0.2806,0 0.45114,0.17673 0.17053,0.17518 0.17053,0.44183 0,0.2651 -0.34417,0.58601 -0.10852,0.10232 -0.18138,0.16433 -0.093,0.0791 -0.32866,0.30851 -0.2341,0.2279 -0.2341,0.25115 h 0.87282 q 0.11317,0 0.15968,-0.0636 0.0279,-0.0372 0.0713,-0.19689 h 0.0589 l -0.0667,0.41858 q -0.008,0.0357 -0.0357,0.0512 h -1.28984 q -0.008,0 -0.008,-0.0403 0,-0.0388 0.0713,-0.12092 0.0729,-0.0822 0.18449,-0.19379 0.11317,-0.11317 0.30696,-0.30851 0.49299,-0.50074 0.49299,-0.8015 0,-0.18448 -0.13488,-0.33331 -0.13332,-0.15038 -0.31161,-0.15038 -0.17673,0 -0.31626,0.11937 -0.13642,0.11938 -0.18448,0.30851 -0.006,0.0279 -0.0264,0.0279 z"
       id="text10"
       style="font-size:3.175px;line-height:1;font-family:Cardo;-inkscape-font-specification:Cardo;letter-spacing:0px;word-spacing:0px;stroke-width:0.2;stroke-linecap:square"
       aria-label="2" /><path
       d="m 114.48285,117.33313 q 0.0186,-0.003 0.0558,-0.003 0.17983,0 0.33021,0.15038 0.15038,0.15037 0.15038,0.38447 0,0.23254 -0.12402,0.41083 -0.12248,0.17828 -0.30696,0.2837 -0.18294,0.10387 -0.35502,0.10387 -0.37672,0 -0.51315,-0.15193 -0.0357,-0.0388 -0.0512,-0.093 0,-0.10387 0.12867,-0.10387 0.0326,0 0.13022,0.0775 0.0992,0.076 0.18604,0.12557 0.0868,0.0496 0.19534,0.0465 0.20308,-0.006 0.33021,-0.19534 0.12867,-0.19068 0.12867,-0.41547 0,-0.22635 -0.11162,-0.34107 -0.11162,-0.11472 -0.2651,-0.11472 -0.0822,0 -0.13642,0.031 -0.0543,0.0294 -0.0636,0.0418 -0.009,0.0124 -0.017,0.0124 -0.006,0 -0.017,-0.0124 -0.0109,-0.0124 -0.0109,-0.0217 0,-0.009 0.009,-0.0186 0.0109,-0.0109 0.0248,-0.0217 0.014,-0.0124 0.0279,-0.0232 0.38602,-0.30076 0.38602,-0.5271 0,-0.13023 -0.0977,-0.21704 -0.0977,-0.0868 -0.20774,-0.0868 -0.28525,0 -0.46043,0.32091 -0.002,0.002 -0.0124,0.002 -0.009,0 -0.0294,-0.009 -0.0202,-0.009 -0.0202,-0.0139 0,-0.005 0.003,-0.014 0.005,-0.009 0.0248,-0.0605 0.0202,-0.0512 0.0837,-0.13022 0.0651,-0.0806 0.14263,-0.13953 0.16588,-0.12557 0.29921,-0.12557 0.24494,0 0.37207,0.0977 0.12712,0.0977 0.12712,0.27285 0,0.17363 -0.18913,0.36277 -0.0326,0.0248 -0.093,0.0667 -0.0589,0.0403 -0.0589,0.0481 v 0.002 z"
       id="text11"
       style="font-size:3.175px;line-height:1;font-family:Cardo;-inkscape-font-specification:Cardo;letter-spacing:0px;word-spacing:0px;stroke-width:0.2;stroke-linecap:square"
       aria-label="3" /><path
       d="m 114.3441,119.28299 v -0.32808 m 0,-2.83751 v -3.75768"
       style="display:inline;fill:none;fill-opacity:1;stroke:#000000;stroke-width:0.2;stroke-linecap:square;stroke-linejoin:miter;stroke-dasharray:none;stroke-opacity:1"
       id="path1-8"
       sodipodi:nodetypes="cccc" /><path
       d="m 114.3441,119.28299 v -0.32808 m 0,-2.83751 v -3.75768"
       style="display:inline;fill:none;fill-opacity:1;stroke:#000000;stroke-width:0.2;stroke-linecap:square;stroke-linejoin:miter;stroke-dasharray:none;stroke-opacity:1"
       id="path11"
       sodipodi:nodetypes="cccc" /><path
       d="m 83.255556,119.28299 v -0.32808 m 0,-2.83751 v -3.75768"
       style="display:inline;fill:none;fill-opacity:1;stroke:#000000;stroke-width:0.2;stroke-linecap:square;stroke-linejoin:miter;stroke-dasharray:none;stroke-opacity:1"
       id="path11-6"
       sodipodi:nodetypes="cccc" /></g></svg>
